<?xml version="1.0" encoding="UTF-8"?>
<svg width="75px" height="100px" viewBox="0 0 75 100" version="1.1" xmlns="http://www.w3.org/2000/svg" xmlns:xlink="http://www.w3.org/1999/xlink">
    <title>Group 78</title>
    <defs>
        <linearGradient x1="50%" y1="0%" x2="50%" y2="100%" id="linearGradient-1">
            <stop stop-color="#18BAFF" offset="0%"></stop>
            <stop stop-color="#0A84FF" offset="100%"></stop>
        </linearGradient>
        <linearGradient x1="50%" y1="0%" x2="50%" y2="100%" id="linearGradient-2">
            <stop stop-color="#FFFFFF" offset="0%"></stop>
            <stop stop-color="#A3D1FF" stop-opacity="0.953107927" offset="100%"></stop>
        </linearGradient>
        <linearGradient x1="12.41781%" y1="44.3119737%" x2="50%" y2="58.5416708%" id="linearGradient-3">
            <stop stop-color="#FFFFFF" offset="0%"></stop>
            <stop stop-color="#FFFFFF" stop-opacity="0" offset="100%"></stop>
        </linearGradient>
    </defs>
    <g id="Page-1" stroke="none" stroke-width="1" fill="none" fill-rule="evenodd">
        <g id="Group-77-Copy" fill-rule="nonzero">
            <g id="Group-78">
                <g id="7267705_ext_srt_subtitle_video_file_icon">
                    <path d="M60,100 L15,100 C6.71572875,100 0,93.2842712 0,85 L0,15 C0,6.71572875 6.71572875,0 15,0 L47.95,0 C49.2616994,0.00552310772 50.5186968,0.526279182 51.45,1.45 L73.55,23.55 C74.4737208,24.4813032 74.9944769,25.7383006 75,27.05 L75,85 C75,93.2842712 68.2842712,100 60,100 Z" id="Path" fill="url(#linearGradient-1)"></path>
                    <path d="M71.5,28.700022 L53.5,28.700022 C49.3578644,28.700022 45.999978,25.3421356 45.999978,21.2 L45.999978,3.2 C45.9955576,2.08433183 46.6656213,1.07654166 47.6961245,0.648992453 C48.7266277,0.221443248 49.913326,0.458874729 50.7,1.25 L73.45,24 C74.2411253,24.786674 74.4785568,25.9733723 74.0510075,27.0038755 C73.6234583,28.0343787 72.6156682,28.7044424 71.5,28.700022 Z" id="Path" fill="#9FCDFF"></path>
                </g>
                <g id="104501_twitter_bird_icon" transform="translate(12.000000, 39.000000)" fill="url(#linearGradient-2)" stroke="url(#linearGradient-3)" stroke-linejoin="round" stroke-width="0.4">
                    <path d="M49.263,4.739 C47.452,5.544 45.503,6.087 43.458,6.33 C45.546,5.08 47.147,3.1 47.902,0.738 C45.949,1.897 43.787,2.738 41.484,3.192 C39.641,1.228 37.014,0 34.107,0 C28.526,0 24.001,4.525 24.001,10.107 C24.001,10.898 24.09,11.669 24.263,12.41 C15.863,11.988 8.415,7.965 3.43,1.85 C2.56,3.342 2.062,5.078 2.062,6.932 C2.062,10.438 3.846,13.532 6.558,15.344 C4.902,15.291 3.343,14.836 1.98,14.079 C1.979,14.121 1.979,14.164 1.979,14.207 C1.979,19.103 5.463,23.187 10.087,24.117 C9.239,24.347 8.346,24.471 7.424,24.471 C6.772,24.471 6.139,24.408 5.522,24.289 C6.809,28.304 10.541,31.227 14.963,31.308 C11.504,34.019 7.147,35.635 2.411,35.635 C1.596,35.635 0.791,35.587 0,35.493 C4.474,38.362 9.786,40.034 15.493,40.034 C34.084,40.034 44.249,24.634 44.249,11.278 C44.249,10.84 44.24,10.403 44.221,9.969 C46.195,8.547 47.909,6.766 49.263,4.739 Z" id="Path"></path>
                </g>
            </g>
        </g>
    </g>
</svg>